<svg width="194" height="291" viewBox="0 0 194 291" fill="none" xmlns="http://www.w3.org/2000/svg">
<rect width="194" height="291" fill="#232E3C"/>
<rect x="36.6863" y="76.9567" width="114.675" height="138.087" rx="57.3377" fill="url(#paint0_linear_1189_8524)"/>
<rect x="42.6382" y="76.9567" width="114.675" height="138.087" rx="57.3377" fill="url(#paint1_linear_1189_8524)"/>
<path d="M102.277 120.387C99.5924 120.387 97.648 120.433 96.4444 120.525C95.2408 124.599 93.8983 130.154 92.4169 137.191C104.361 137.839 113.434 140.293 119.637 144.552C125.841 148.811 128.942 154.597 128.942 161.912C128.942 166.726 127.692 171.078 125.193 174.967C122.785 178.763 119.221 181.772 114.499 183.994C109.777 186.216 104.222 187.327 97.8332 187.327C89.2226 187.327 82.2786 185.66 77.0012 182.327C71.8163 178.994 69.2239 174.504 69.2239 168.856C69.2239 165.8 69.9183 163.439 71.3071 161.773C72.7885 160.014 74.8254 159.134 77.4178 159.134C79.4547 159.134 81.0287 159.69 82.1397 160.801C83.2508 161.819 84.1767 163.625 84.9173 166.217C86.4913 171.865 91.2595 174.689 99.222 174.689C102.648 174.689 105.472 173.67 107.694 171.633C109.916 169.504 111.027 166.911 111.027 163.856C111.027 155.708 102.37 151.357 85.0562 150.801C81.3528 150.709 78.6677 150.107 77.0012 148.996C75.4272 147.885 74.6402 146.172 74.6402 143.857C74.6402 142.746 74.7791 141.589 75.0568 140.385L76.5845 133.719C77.1401 131.034 78.0659 126.914 79.3621 121.359H79.0844C77.2326 121.359 75.7512 120.942 74.6402 120.109C73.5292 119.183 72.9736 117.933 72.9736 116.359C72.9736 111.822 75.1957 108.859 79.6399 107.471C83.8063 106.174 91.3058 105.526 102.139 105.526C109.916 105.526 115.564 105.665 119.082 105.943C122.6 106.128 125.332 106.452 127.276 106.915C129.128 107.378 130.424 108.026 131.164 108.86C131.905 109.6 132.276 110.758 132.276 112.332C132.276 115.479 131.627 117.748 130.331 119.137C129.128 120.433 127.044 121.081 124.082 121.081C122.6 121.081 119.73 120.988 115.471 120.803C107.694 120.525 103.296 120.387 102.277 120.387Z" fill="white"/>
<defs>
<linearGradient id="paint0_linear_1189_8524" x1="32.5199" y1="76.9567" x2="151.362" y2="219.607" gradientUnits="userSpaceOnUse">
<stop stop-color="#1557D0"/>
<stop offset="0.340251" stop-color="#2B6BE1"/>
<stop offset="1" stop-color="#0445BD"/>
</linearGradient>
<linearGradient id="paint1_linear_1189_8524" x1="42.6382" y1="76.9567" x2="116.245" y2="215.043" gradientUnits="userSpaceOnUse">
<stop stop-color="#FF6A7A"/>
<stop offset="0.68072" stop-color="#F10720"/>
<stop offset="1" stop-color="#F10720"/>
</linearGradient>
</defs>
</svg>
