<svg width="120" height="40" viewBox="0 0 120 40" fill="none" xmlns="http://www.w3.org/2000/svg">
<g id="logos">
<g id="Vector">
<path d="M1.08612 17.0411C1.08612 9.03657 7.57509 2.54761 15.5796 2.54761C23.5842 2.54761 30.0731 9.03657 30.0731 17.0411V22.9589C30.0731 30.9634 23.5842 37.4524 15.5796 37.4524C7.57509 37.4524 1.08612 30.9634 1.08612 22.9589V17.0411Z" fill="url(#paint0_linear_78_166)"/>
<path d="M2.59064 17.0411C2.59064 9.03657 9.07961 2.54761 17.0842 2.54761C25.0887 2.54761 31.5777 9.03657 31.5777 17.0411V22.9589C31.5777 30.9634 25.0887 37.4524 17.0842 37.4524C9.07961 37.4524 2.59064 30.9634 2.59064 22.9589V17.0411Z" fill="url(#paint1_linear_78_166)"/>
<path d="M17.6659 13.5256C16.9872 13.5256 16.4957 13.5373 16.1915 13.5607C15.8872 14.5904 15.5479 15.9946 15.1734 17.7733C18.1925 17.9371 20.486 18.5573 22.0541 19.6339C23.6221 20.7105 24.4061 22.1732 24.4061 24.0221C24.4061 25.2391 24.0902 26.339 23.4583 27.322C22.8498 28.2815 21.9487 29.0421 20.7552 29.6038C19.5616 30.1655 18.1574 30.4464 16.5425 30.4464C14.366 30.4464 12.6107 30.0251 11.2767 29.1826C9.9661 28.34 9.3108 27.205 9.3108 25.7773C9.3108 25.005 9.48633 24.4082 9.83738 23.987C10.2118 23.5423 10.7267 23.32 11.382 23.32C11.8969 23.32 12.2948 23.4604 12.5756 23.7412C12.8564 23.9987 13.0905 24.455 13.2777 25.1103C13.6756 26.538 14.8809 27.2518 16.8936 27.2518C17.7595 27.2518 18.4733 26.9943 19.035 26.4794C19.5967 25.9412 19.8775 25.2859 19.8775 24.5135C19.8775 22.454 17.6893 21.3541 13.3128 21.2136C12.3767 21.1902 11.698 21.0381 11.2767 20.7573C10.8788 20.4764 10.6799 20.0435 10.6799 19.4584C10.6799 19.1775 10.715 18.885 10.7852 18.5807L11.1714 16.8957C11.3118 16.217 11.5458 15.1755 11.8735 13.7713H11.8033C11.3352 13.7713 10.9608 13.666 10.6799 13.4553C10.3991 13.2213 10.2586 12.9054 10.2586 12.5075C10.2586 11.3607 10.8203 10.6118 11.9437 10.2608C12.9969 9.93311 14.8926 9.76928 17.6308 9.76928C19.5967 9.76928 21.0243 9.80439 21.9136 9.8746C22.803 9.92141 23.4934 10.0033 23.9848 10.1203C24.4529 10.2374 24.7806 10.4012 24.9678 10.6118C25.155 10.799 25.2486 11.0916 25.2486 11.4894C25.2486 12.2852 25.0848 12.8586 24.7572 13.2096C24.4529 13.5373 23.9263 13.7011 23.1774 13.7011C22.803 13.7011 22.0775 13.6777 21.0009 13.6309C19.035 13.5607 17.9233 13.5256 17.6659 13.5256Z" fill="white"/>
</g>
<g id="dorama">
<path d="M42.9726 28.8253C41.9441 28.8253 41.0237 28.5611 40.2112 28.0327C39.3987 27.5043 38.7566 26.7372 38.2851 25.7315C37.8135 24.7259 37.5777 23.5043 37.5777 22.0668C37.5777 20.6122 37.8163 19.3849 38.2936 18.3849C38.7765 17.3793 39.4271 16.6207 40.2453 16.1094C41.0635 15.5923 41.9754 15.3338 42.9811 15.3338C43.7481 15.3338 44.3788 15.4645 44.8731 15.7259C45.3674 15.9815 45.7595 16.2912 46.0493 16.6548C46.339 17.0128 46.5635 17.3509 46.7226 17.669H46.8504V11.1406H49.9441V28.5952H46.9101V26.5327H46.7226C46.5635 26.8509 46.3333 27.1889 46.0322 27.5469C45.7311 27.8991 45.3333 28.2003 44.839 28.4503C44.3447 28.7003 43.7226 28.8253 42.9726 28.8253ZM43.8333 26.294C44.4868 26.294 45.0436 26.1179 45.5038 25.7656C45.964 25.4077 46.3135 24.9105 46.5521 24.2741C46.7907 23.6378 46.9101 22.8963 46.9101 22.0497C46.9101 21.2031 46.7907 20.4673 46.5521 19.8423C46.3191 19.2173 45.9726 18.7315 45.5123 18.3849C45.0578 18.0384 44.4981 17.8651 43.8333 17.8651C43.1458 17.8651 42.572 18.044 42.1118 18.402C41.6515 18.7599 41.3049 19.2543 41.072 19.8849C40.839 20.5156 40.7226 21.2372 40.7226 22.0497C40.7226 22.8679 40.839 23.598 41.072 24.2401C41.3106 24.8764 41.6601 25.3793 42.1203 25.7486C42.5862 26.1122 43.1572 26.294 43.8333 26.294Z" fill="white"/>
<path d="M58.102 28.8509C56.8236 28.8509 55.7157 28.5696 54.7782 28.0071C53.8407 27.4446 53.1134 26.6577 52.5963 25.6463C52.085 24.6349 51.8293 23.4531 51.8293 22.1009C51.8293 20.7486 52.085 19.5639 52.5963 18.5469C53.1134 17.5298 53.8407 16.7401 54.7782 16.1776C55.7157 15.6151 56.8236 15.3338 58.102 15.3338C59.3804 15.3338 60.4884 15.6151 61.4259 16.1776C62.3634 16.7401 63.0878 17.5298 63.5992 18.5469C64.1162 19.5639 64.3747 20.7486 64.3747 22.1009C64.3747 23.4531 64.1162 24.6349 63.5992 25.6463C63.0878 26.6577 62.3634 27.4446 61.4259 28.0071C60.4884 28.5696 59.3804 28.8509 58.102 28.8509ZM58.1191 26.3793C58.8122 26.3793 59.3918 26.1889 59.8577 25.8082C60.3236 25.4219 60.6702 24.9048 60.8975 24.2571C61.1304 23.6094 61.2469 22.8878 61.2469 22.0923C61.2469 21.2912 61.1304 20.5668 60.8975 19.919C60.6702 19.2656 60.3236 18.7457 59.8577 18.3594C59.3918 17.973 58.8122 17.7798 58.1191 17.7798C57.4088 17.7798 56.8179 17.973 56.3463 18.3594C55.8804 18.7457 55.531 19.2656 55.298 19.919C55.0708 20.5668 54.9571 21.2912 54.9571 22.0923C54.9571 22.8878 55.0708 23.6094 55.298 24.2571C55.531 24.9048 55.8804 25.4219 56.3463 25.8082C56.8179 26.1889 57.4088 26.3793 58.1191 26.3793Z" fill="white"/>
<path d="M66.1533 28.5952V15.5043H69.1448V17.6861H69.2812C69.5198 16.9304 69.9289 16.348 70.5085 15.9389C71.0937 15.5241 71.7613 15.3168 72.5113 15.3168C72.6818 15.3168 72.8721 15.3253 73.0823 15.3423C73.2982 15.3537 73.4772 15.3736 73.6193 15.402V18.2401C73.4886 18.1946 73.2812 18.1548 72.9971 18.1207C72.7187 18.081 72.4488 18.0611 72.1874 18.0611C71.6249 18.0611 71.1193 18.1832 70.6704 18.4276C70.2272 18.6662 69.8778 18.9986 69.6221 19.4247C69.3664 19.8509 69.2386 20.3423 69.2386 20.8991V28.5952H66.1533Z" fill="white"/>
<path d="M78.3616 28.8594C77.5321 28.8594 76.7849 28.7116 76.1202 28.4162C75.4611 28.1151 74.9384 27.6719 74.552 27.0866C74.1713 26.5014 73.981 25.7798 73.981 24.9219C73.981 24.1832 74.1173 23.5724 74.3901 23.0895C74.6628 22.6065 75.0349 22.2202 75.5065 21.9304C75.9781 21.6406 76.5094 21.4219 77.1003 21.2741C77.6969 21.1207 78.3133 21.0099 78.9497 20.9418C79.7168 20.8622 80.3389 20.7912 80.8162 20.7287C81.2935 20.6605 81.6401 20.5582 81.856 20.4219C82.0776 20.2798 82.1884 20.0611 82.1884 19.7656V19.7145C82.1884 19.0724 81.998 18.5753 81.6173 18.223C81.2366 17.8707 80.6883 17.6946 79.9724 17.6946C79.2168 17.6946 78.6173 17.8594 78.1741 18.1889C77.7366 18.5185 77.4412 18.9077 77.2878 19.3565L74.4071 18.9474C74.6344 18.152 75.0094 17.4872 75.5321 16.9531C76.0548 16.4134 76.694 16.0099 77.4497 15.7429C78.2054 15.4702 79.0406 15.3338 79.9554 15.3338C80.5861 15.3338 81.2139 15.4077 81.8389 15.5554C82.4639 15.7031 83.0349 15.9474 83.552 16.2884C84.069 16.6236 84.4838 17.081 84.7963 17.6605C85.1145 18.2401 85.2736 18.9645 85.2736 19.8338V28.5952H82.3077V26.7969H82.2054C82.0179 27.1605 81.7537 27.5014 81.4128 27.8196C81.0776 28.1321 80.6543 28.3849 80.1429 28.5781C79.6372 28.7656 79.0435 28.8594 78.3616 28.8594ZM79.1628 26.5923C79.7821 26.5923 80.319 26.4702 80.7736 26.2259C81.2281 25.9759 81.5776 25.6463 81.8219 25.2372C82.0719 24.8281 82.1969 24.3821 82.1969 23.8991V22.3565C82.1003 22.4361 81.9355 22.5099 81.7026 22.5781C81.4753 22.6463 81.2196 22.706 80.9355 22.7571C80.6514 22.8082 80.3702 22.8537 80.0918 22.8935C79.8134 22.9332 79.5719 22.9673 79.3673 22.9957C78.9071 23.0582 78.4952 23.1605 78.1315 23.3026C77.7679 23.4446 77.481 23.6435 77.2707 23.8991C77.0605 24.1491 76.9554 24.473 76.9554 24.8707C76.9554 25.4389 77.1628 25.8679 77.5776 26.1577C77.9923 26.4474 78.5207 26.5923 79.1628 26.5923Z" fill="white"/>
<path d="M87.5358 28.5952V15.5043H90.4847V17.7287H90.6381C90.9109 16.9787 91.3626 16.3935 91.9932 15.973C92.6239 15.5469 93.3768 15.3338 94.2518 15.3338C95.1381 15.3338 95.8853 15.5497 96.4932 15.9815C97.1069 16.4077 97.5387 16.9901 97.7887 17.7287H97.9251C98.2148 17.0014 98.7035 16.4219 99.391 15.9901C100.084 15.5526 100.905 15.3338 101.854 15.3338C103.059 15.3338 104.042 15.7145 104.803 16.4759C105.564 17.2372 105.945 18.348 105.945 19.8082V28.5952H102.851V20.2855C102.851 19.473 102.635 18.8793 102.203 18.5043C101.772 18.1236 101.243 17.9332 100.618 17.9332C99.8739 17.9332 99.2915 18.1662 98.8711 18.6321C98.4563 19.0923 98.2489 19.6918 98.2489 20.4304V28.5952H95.2234V20.1577C95.2234 19.4815 95.0188 18.9418 94.6097 18.5384C94.2063 18.1349 93.6779 17.9332 93.0245 17.9332C92.5813 17.9332 92.1779 18.0469 91.8143 18.2741C91.4506 18.4957 91.1608 18.8111 90.9449 19.2202C90.729 19.6236 90.6211 20.0952 90.6211 20.6349V28.5952H87.5358Z" fill="white"/>
<path d="M112.002 28.8594C111.172 28.8594 110.425 28.7116 109.76 28.4162C109.101 28.1151 108.579 27.6719 108.192 27.0866C107.812 26.5014 107.621 25.7798 107.621 24.9219C107.621 24.1832 107.758 23.5724 108.03 23.0895C108.303 22.6065 108.675 22.2202 109.147 21.9304C109.618 21.6406 110.15 21.4219 110.741 21.2741C111.337 21.1207 111.954 21.0099 112.59 20.9418C113.357 20.8622 113.979 20.7912 114.457 20.7287C114.934 20.6605 115.28 20.5582 115.496 20.4219C115.718 20.2798 115.829 20.0611 115.829 19.7656V19.7145C115.829 19.0724 115.638 18.5753 115.258 18.223C114.877 17.8707 114.329 17.6946 113.613 17.6946C112.857 17.6946 112.258 17.8594 111.814 18.1889C111.377 18.5185 111.082 18.9077 110.928 19.3565L108.047 18.9474C108.275 18.152 108.65 17.4872 109.172 16.9531C109.695 16.4134 110.334 16.0099 111.09 15.7429C111.846 15.4702 112.681 15.3338 113.596 15.3338C114.226 15.3338 114.854 15.4077 115.479 15.5554C116.104 15.7031 116.675 15.9474 117.192 16.2884C117.709 16.6236 118.124 17.081 118.437 17.6605C118.755 18.2401 118.914 18.9645 118.914 19.8338V28.5952H115.948V26.7969H115.846C115.658 27.1605 115.394 27.5014 115.053 27.8196C114.718 28.1321 114.295 28.3849 113.783 28.5781C113.278 28.7656 112.684 28.8594 112.002 28.8594ZM112.803 26.5923C113.422 26.5923 113.959 26.4702 114.414 26.2259C114.868 25.9759 115.218 25.6463 115.462 25.2372C115.712 24.8281 115.837 24.3821 115.837 23.8991V22.3565C115.741 22.4361 115.576 22.5099 115.343 22.5781C115.116 22.6463 114.86 22.706 114.576 22.7571C114.292 22.8082 114.01 22.8537 113.732 22.8935C113.454 22.9332 113.212 22.9673 113.008 22.9957C112.547 23.0582 112.135 23.1605 111.772 23.3026C111.408 23.4446 111.121 23.6435 110.911 23.8991C110.701 24.1491 110.596 24.473 110.596 24.8707C110.596 25.4389 110.803 25.8679 111.218 26.1577C111.633 26.4474 112.161 26.5923 112.803 26.5923Z" fill="white"/>
</g>
</g>
<defs>
<linearGradient id="paint0_linear_78_166" x1="-0.0217035" y1="2.54761" x2="29.7086" y2="40.0861" gradientUnits="userSpaceOnUse">
<stop stop-color="#1557D0"/>
<stop offset="0.340251" stop-color="#2B6BE1"/>
<stop offset="1" stop-color="#0445BD"/>
</linearGradient>
<linearGradient id="paint1_linear_78_166" x1="1.08612" y1="2.54761" x2="19.1588" y2="38.2119" gradientUnits="userSpaceOnUse">
<stop stop-color="#FF6A7A"/>
<stop offset="0.68072" stop-color="#F10720"/>
<stop offset="1" stop-color="#F10720"/>
</linearGradient>
</defs>
</svg>
