<svg width="24" height="24" viewBox="0 0 24 24" fill="none" xmlns="http://www.w3.org/2000/svg">
<path d="M17.77 10.32L16.57 9.81999L18 9.05999C19.84 8.09999 20.53 5.82999 19.56 3.99999C18.59 2.16999 16.32 1.46999 14.49 2.43999L6.00001 6.93999C4.71001 7.61999 3.93001 8.97999 4.00001 10.43C4.07001 11.85 4.93001 13.1 6.22001 13.68C6.25001 13.69 7.42001 14.18 7.42001 14.18L6.00001 14.93C4.17001 15.9 3.47001 18.17 4.44001 20C5.41001 21.83 7.68001 22.53 9.51001 21.56L18.01 17.06C19.3 16.38 20.07 15.02 20 13.57C19.93 12.15 19.06 10.89 17.77 10.32ZM10 14.65V9.34999L15 12L10 14.65Z" fill="#768C9E"/>
</svg>
