<svg width="24" height="24" viewBox="0 0 24 24" fill="none" xmlns="http://www.w3.org/2000/svg">
<g id="home_black_24dp 2">
<path id="Vector" d="M17.8104 10.2285L17.8104 10.2285C19.135 10.8138 20.028 12.1073 20.0999 13.5651L20.0999 13.5652C20.1718 15.0537 19.3813 16.4501 18.0568 17.1484L17.8104 10.2285ZM17.8104 10.2285L17.8085 10.2277L16.8037 9.80903L18.0463 9.14865C18.0464 9.14859 18.0465 9.14854 18.0466 9.14848C19.9361 8.16243 20.644 5.8315 19.6484 3.95316C18.6526 2.07448 16.3221 1.35571 14.4432 2.35164L5.95338 6.85153C5.95332 6.85156 5.95326 6.8516 5.95319 6.85163C4.62919 7.54965 3.82825 8.94581 3.90013 10.4348L3.90014 10.4349C3.972 11.8927 4.85493 13.1759 6.17901 13.7712L6.1788 13.7717L6.18839 13.7749C6.18824 13.7748 6.18946 13.7753 6.19216 13.7764C6.19896 13.7792 6.21511 13.7857 6.24211 13.7968L6.38179 13.8547C6.49561 13.902 6.64461 13.9641 6.79272 14.026L7.18605 14.1905L5.95331 14.8416L5.95318 14.8416C4.0745 15.8374 3.35573 18.1679 4.35166 20.0468C5.34746 21.9255 7.67794 22.6443 9.55685 21.6483L18.0566 17.1485L17.8104 10.2285ZM8.9932 20.5916L8.99323 20.5916L17.4931 16.0917C18.399 15.6098 18.9483 14.6459 18.9001 13.6247C18.852 12.6037 18.2162 11.6978 17.262 11.3025L8.9932 20.5916ZM8.9932 20.5916C7.70181 21.2759 6.09242 20.7842 5.40838 19.4932C4.72414 18.2018 5.21581 16.5924 6.5068 15.9084C6.50681 15.9084 6.50682 15.9084 6.50683 15.9084L8.5468 14.8284L8.60001 14.8002V14.74V13.53V13.4627L8.53762 13.4373L7.8483 13.1576L7.84762 13.1573L6.7383 12.6976L6.73828 12.6976C5.78391 12.3024 5.14807 11.3964 5.0999 10.3753C5.05173 9.35404 5.601 8.39018 6.50698 7.90828L15.0068 3.40837L15.0068 3.40835C16.2982 2.72411 17.9076 3.21579 18.5917 4.50681C19.2759 5.79818 18.7842 7.40756 17.4932 8.09161C17.4932 8.09162 17.4932 8.09162 17.4932 8.09163L15.4532 9.17161L15.4 9.19978V9.25999V10.47V10.537L15.462 10.5625L17.2618 11.3024L8.9932 20.5916ZM9.90001 14.65V14.8162L10.0468 14.7383L15.0468 12.0883L15.2136 12L15.0468 11.9116L10.0468 9.26163L9.90001 9.18381V9.34999V14.65Z" fill="#768C9E" stroke="#768C9E" stroke-width="0.2"/>
</g>
</svg>
