<svg width="40" height="40" viewBox="0 0 40 40" fill="none" xmlns="http://www.w3.org/2000/svg">
<path d="M5 17.533C5 9.50667 11.3844 3 19.2599 3C27.1354 3 33.5197 9.50666 33.5197 17.533V23.467C33.5197 31.4933 27.1354 38 19.2599 38C11.3844 38 5 31.4933 5 23.467V17.533Z" fill="url(#paint0_linear_23_1319)"/>
<path d="M6.48027 17.533C6.48027 9.50667 12.8646 3 20.7401 3C28.6156 3 35 9.50667 35 17.533V23.467C35 31.4933 28.6156 38 20.7401 38C12.8646 38 6.48027 31.4933 6.48027 23.467V17.533Z" fill="url(#paint1_linear_23_1319)"/>
<path d="M21.3125 14.0079C20.6447 14.0079 20.1612 14.0196 19.8618 14.0431C19.5625 15.0757 19.2286 16.4837 18.8602 18.2672C21.8306 18.4315 24.0872 19.0534 25.6299 20.1329C27.1727 21.2124 27.9441 22.6791 27.9441 24.533C27.9441 25.7534 27.6332 26.8563 27.0115 27.842C26.4128 28.8041 25.5263 29.5668 24.352 30.13C23.1776 30.6932 21.796 30.9749 20.2072 30.9749C18.0658 30.9749 16.3388 30.5524 15.0263 29.7076C13.7368 28.8628 13.0921 27.7246 13.0921 26.2931C13.0921 25.5187 13.2648 24.9203 13.6102 24.4978C13.9786 24.052 14.4852 23.829 15.1299 23.829C15.6365 23.829 16.0279 23.9698 16.3043 24.2514C16.5806 24.5096 16.8108 24.9672 16.9951 25.6243C17.3865 27.0558 18.5724 27.7715 20.5526 27.7715C21.4046 27.7715 22.1069 27.5134 22.6595 26.9971C23.2122 26.4574 23.4885 25.8003 23.4885 25.0259C23.4885 22.9607 21.3355 21.8578 17.0296 21.717C16.1085 21.6935 15.4408 21.5409 15.0263 21.2593C14.6349 20.9777 14.4391 20.5436 14.4391 19.9569C14.4391 19.6753 14.4737 19.3819 14.5428 19.0769L14.9227 17.3872C15.0608 16.7067 15.2911 15.6624 15.6135 14.2543H15.5444C15.0839 14.2543 14.7154 14.1487 14.4391 13.9375C14.1628 13.7028 14.0247 13.386 14.0247 12.9871C14.0247 11.8372 14.5773 11.0862 15.6826 10.7342C16.7187 10.4056 18.5839 10.2414 21.2779 10.2414C23.2122 10.2414 24.6168 10.2766 25.4918 10.347C26.3668 10.3939 27.046 10.476 27.5296 10.5934C27.9901 10.7107 28.3125 10.875 28.4967 11.0862C28.6809 11.2739 28.773 11.5673 28.773 11.9662C28.773 12.7641 28.6118 13.3391 28.2895 13.6911C27.9901 14.0196 27.472 14.1839 26.7352 14.1839C26.3668 14.1839 25.6529 14.1604 24.5937 14.1135C22.6595 14.0431 21.5658 14.0079 21.3125 14.0079Z" fill="white"/>
<defs>
<linearGradient id="paint0_linear_23_1319" x1="3.91003" y1="3" x2="33.8462" y2="40.0879" gradientUnits="userSpaceOnUse">
<stop stop-color="#1557D0"/>
<stop offset="0.340251" stop-color="#2B6BE1"/>
<stop offset="1" stop-color="#0445BD"/>
</linearGradient>
<linearGradient id="paint1_linear_23_1319" x1="5" y1="3" x2="23.3243" y2="38.4812" gradientUnits="userSpaceOnUse">
<stop stop-color="#FF6A7A"/>
<stop offset="0.68072" stop-color="#F10720"/>
<stop offset="1" stop-color="#F10720"/>
</linearGradient>
</defs>
</svg>
