<svg width="96" height="44" viewBox="0 0 96 44" fill="none" xmlns="http://www.w3.org/2000/svg">
<path d="M0.768921 19.6329C0.768921 13.2293 5.96009 8.03809 12.3637 8.03809C18.7674 8.03809 23.9585 13.2293 23.9585 19.6329V24.3671C23.9585 30.7707 18.7674 35.9619 12.3637 35.9619C5.96009 35.9619 0.768921 30.7707 0.768921 24.3671V19.6329Z" fill="url(#paint0_linear_268_2711)"/>
<path d="M1.97254 19.6329C1.97254 13.2293 7.16371 8.03809 13.5673 8.03809C19.971 8.03809 25.1622 13.2293 25.1622 19.6329V24.3671C25.1622 30.7707 19.971 35.9619 13.5673 35.9619C7.16371 35.9619 1.97254 30.7707 1.97254 24.3671V19.6329Z" fill="url(#paint1_linear_268_2711)"/>
<path d="M14.0327 16.8204C13.4898 16.8204 13.0966 16.8298 12.8532 16.8485C12.6098 17.6723 12.3383 18.7957 12.0387 20.2186C14.454 20.3497 16.2888 20.8459 17.5433 21.7071C18.7977 22.5684 19.4249 23.7385 19.4249 25.2177C19.4249 26.1912 19.1722 27.0712 18.6666 27.8576C18.1798 28.6252 17.459 29.2337 16.5041 29.6831C15.5493 30.1324 14.4259 30.3571 13.134 30.3571C11.3928 30.3571 9.98859 30.0201 8.92139 29.346C7.8729 28.672 7.34866 27.764 7.34866 26.6219C7.34866 26.004 7.48909 25.5266 7.76993 25.1896C8.06949 24.8338 8.4814 24.656 9.00564 24.656C9.41754 24.656 9.73583 24.7683 9.96051 24.993C10.1852 25.1989 10.3724 25.564 10.5222 26.0883C10.8405 27.2304 11.8047 27.8014 13.4149 27.8014C14.1076 27.8014 14.6787 27.5955 15.128 27.1836C15.5774 26.7529 15.802 26.2287 15.802 25.6108C15.802 23.9632 14.0515 23.0832 10.5503 22.9709C9.80136 22.9522 9.2584 22.8305 8.92139 22.6058C8.6031 22.3811 8.44395 22.0348 8.44395 21.5667C8.44395 21.342 8.47204 21.108 8.52821 20.8646L8.83713 19.5165C8.94947 18.9736 9.1367 18.1404 9.39882 17.017H9.34265C8.96819 17.017 8.66863 16.9328 8.44395 16.7643C8.21928 16.5771 8.10694 16.3243 8.10694 16.006C8.10694 15.0886 8.55629 14.4894 9.45499 14.2086C10.2975 13.9465 11.8141 13.8154 14.0046 13.8154C15.5774 13.8154 16.7195 13.8435 17.4309 13.8997C18.1424 13.9371 18.6947 14.0027 19.0879 14.0963C19.4624 14.1899 19.7245 14.3209 19.8743 14.4894C20.024 14.6392 20.0989 14.8733 20.0989 15.1916C20.0989 15.8281 19.9679 16.2868 19.7058 16.5677C19.4624 16.8298 19.0411 16.9609 18.442 16.9609C18.1424 16.9609 17.562 16.9421 16.7007 16.9047C15.128 16.8485 14.2387 16.8204 14.0327 16.8204Z" fill="white"/>
<path d="M34.478 29.0602C33.6553 29.0602 32.9189 28.8488 32.2689 28.4261C31.6189 28.0034 31.1053 27.3897 30.728 26.5852C30.3507 25.7807 30.1621 24.8034 30.1621 23.6534C30.1621 22.4897 30.353 21.5079 30.7348 20.7079C31.1212 19.9034 31.6417 19.2966 32.2962 18.8875C32.9507 18.4738 33.6803 18.267 34.4848 18.267C35.0985 18.267 35.603 18.3716 35.9985 18.5807C36.3939 18.7852 36.7076 19.0329 36.9394 19.3238C37.1712 19.6102 37.3507 19.8807 37.478 20.1352H37.5803V14.9125H40.0553V28.8761H37.628V27.2261H37.478C37.3507 27.4807 37.1667 27.7511 36.9257 28.0375C36.6848 28.3193 36.3667 28.5602 35.9712 28.7602C35.5757 28.9602 35.078 29.0602 34.478 29.0602ZM35.1667 27.0352C35.6894 27.0352 36.1348 26.8943 36.503 26.6125C36.8712 26.3261 37.1507 25.9284 37.3417 25.4193C37.5326 24.9102 37.628 24.317 37.628 23.6397C37.628 22.9625 37.5326 22.3738 37.3417 21.8738C37.1553 21.3738 36.878 20.9852 36.5098 20.7079C36.1462 20.4307 35.6985 20.292 35.1667 20.292C34.6167 20.292 34.1576 20.4352 33.7894 20.7216C33.4212 21.0079 33.1439 21.4034 32.9576 21.9079C32.7712 22.4125 32.678 22.9897 32.678 23.6397C32.678 24.2943 32.7712 24.8784 32.9576 25.392C33.1485 25.9011 33.428 26.3034 33.7962 26.5988C34.1689 26.8897 34.6257 27.0352 35.1667 27.0352Z" fill="white"/>
<path d="M46.5816 29.0807C45.5589 29.0807 44.6725 28.8557 43.9225 28.4057C43.1725 27.9557 42.5907 27.3261 42.177 26.517C41.768 25.7079 41.5634 24.7625 41.5634 23.6807C41.5634 22.5988 41.768 21.6511 42.177 20.8375C42.5907 20.0238 43.1725 19.392 43.9225 18.942C44.6725 18.492 45.5589 18.267 46.5816 18.267C47.6043 18.267 48.4907 18.492 49.2407 18.942C49.9907 19.392 50.5702 20.0238 50.9793 20.8375C51.393 21.6511 51.5998 22.5988 51.5998 23.6807C51.5998 24.7625 51.393 25.7079 50.9793 26.517C50.5702 27.3261 49.9907 27.9557 49.2407 28.4057C48.4907 28.8557 47.6043 29.0807 46.5816 29.0807ZM46.5952 27.1034C47.1498 27.1034 47.6134 26.9511 47.9861 26.6466C48.3589 26.3375 48.6361 25.9238 48.818 25.4057C49.0043 24.8875 49.0975 24.3102 49.0975 23.6738C49.0975 23.0329 49.0043 22.4534 48.818 21.9352C48.6361 21.4125 48.3589 20.9966 47.9861 20.6875C47.6134 20.3784 47.1498 20.2238 46.5952 20.2238C46.027 20.2238 45.5543 20.3784 45.177 20.6875C44.8043 20.9966 44.5248 21.4125 44.3384 21.9352C44.1566 22.4534 44.0657 23.0329 44.0657 23.6738C44.0657 24.3102 44.1566 24.8875 44.3384 25.4057C44.5248 25.9238 44.8043 26.3375 45.177 26.6466C45.5543 26.9511 46.027 27.1034 46.5952 27.1034Z" fill="white"/>
<path d="M53.0227 28.8761V18.4034H55.4158V20.1488H55.5249C55.7158 19.5443 56.0431 19.0784 56.5067 18.7511C56.9749 18.4193 57.509 18.2534 58.109 18.2534C58.2454 18.2534 58.3977 18.2602 58.5658 18.2738C58.7386 18.2829 58.8817 18.2988 58.9954 18.3216V20.592C58.8908 20.5557 58.7249 20.5238 58.4977 20.4966C58.2749 20.4647 58.059 20.4488 57.8499 20.4488C57.3999 20.4488 56.9954 20.5466 56.6363 20.742C56.2817 20.9329 56.0022 21.1988 55.7977 21.5397C55.5931 21.8807 55.4908 22.2738 55.4908 22.7193V28.8761H53.0227Z" fill="white"/>
<path d="M62.7893 29.0875C62.1257 29.0875 61.5279 28.9693 60.9961 28.7329C60.4688 28.492 60.0507 28.1375 59.7416 27.6693C59.437 27.2011 59.2847 26.6238 59.2847 25.9375C59.2847 25.3466 59.3938 24.8579 59.612 24.4716C59.8302 24.0852 60.1279 23.7761 60.5052 23.5443C60.8825 23.3125 61.3075 23.1375 61.7802 23.0193C62.2575 22.8966 62.7507 22.8079 63.2597 22.7534C63.8734 22.6897 64.3711 22.6329 64.7529 22.5829C65.1347 22.5284 65.412 22.4466 65.5847 22.3375C65.762 22.2238 65.8507 22.0488 65.8507 21.8125V21.7716C65.8507 21.2579 65.6984 20.8602 65.3938 20.5784C65.0893 20.2966 64.6507 20.1557 64.0779 20.1557C63.4734 20.1557 62.9938 20.2875 62.6393 20.5511C62.2893 20.8147 62.0529 21.1261 61.9302 21.4852L59.6257 21.1579C59.8075 20.5216 60.1075 19.9897 60.5257 19.5625C60.9438 19.1307 61.4552 18.8079 62.0597 18.5943C62.6643 18.3761 63.3325 18.267 64.0643 18.267C64.5688 18.267 65.0711 18.3261 65.5711 18.4443C66.0711 18.5625 66.5279 18.7579 66.9416 19.0307C67.3552 19.2988 67.687 19.6647 67.937 20.1284C68.1916 20.592 68.3188 21.1716 68.3188 21.867V28.8761H65.9461V27.4375H65.8643C65.7143 27.7284 65.5029 28.0011 65.2302 28.2557C64.962 28.5057 64.6234 28.7079 64.2143 28.8625C63.8097 29.0125 63.3347 29.0875 62.7893 29.0875ZM63.4302 27.2738C63.9257 27.2738 64.3552 27.1761 64.7188 26.9807C65.0825 26.7807 65.362 26.517 65.5575 26.1897C65.7575 25.8625 65.8575 25.5057 65.8575 25.1193V23.8852C65.7802 23.9488 65.6484 24.0079 65.462 24.0625C65.2802 24.117 65.0757 24.1647 64.8484 24.2057C64.6211 24.2466 64.3961 24.2829 64.1734 24.3147C63.9507 24.3466 63.7575 24.3738 63.5938 24.3966C63.2257 24.4466 62.8961 24.5284 62.6052 24.642C62.3143 24.7557 62.0847 24.9147 61.9166 25.1193C61.7484 25.3193 61.6643 25.5784 61.6643 25.8966C61.6643 26.3511 61.8302 26.6943 62.162 26.9261C62.4938 27.1579 62.9166 27.2738 63.4302 27.2738Z" fill="white"/>
<path d="M70.1287 28.8761V18.4034H72.4877V20.1829H72.6105C72.8287 19.5829 73.19 19.1147 73.6946 18.7784C74.1991 18.4375 74.8014 18.267 75.5014 18.267C76.2105 18.267 76.8082 18.4397 77.2946 18.7852C77.7855 19.1261 78.1309 19.592 78.3309 20.1829H78.44C78.6718 19.6011 79.0627 19.1375 79.6127 18.792C80.1673 18.442 80.8241 18.267 81.5832 18.267C82.5468 18.267 83.3332 18.5716 83.9423 19.1807C84.5514 19.7897 84.8559 20.6784 84.8559 21.8466V28.8761H82.3809V22.2284C82.3809 21.5784 82.2082 21.1034 81.8627 20.8034C81.5173 20.4988 81.0946 20.3466 80.5946 20.3466C79.9991 20.3466 79.5332 20.5329 79.1968 20.9057C78.865 21.2738 78.6991 21.7534 78.6991 22.3443V28.8761H76.2787V22.1261C76.2787 21.5852 76.115 21.1534 75.7877 20.8307C75.465 20.5079 75.0423 20.3466 74.5196 20.3466C74.165 20.3466 73.8423 20.4375 73.5514 20.6193C73.2605 20.7966 73.0287 21.0488 72.8559 21.3761C72.6832 21.6988 72.5968 22.0761 72.5968 22.5079V28.8761H70.1287Z" fill="white"/>
<path d="M89.7015 29.0875C89.0379 29.0875 88.4402 28.9693 87.9084 28.7329C87.3811 28.492 86.9629 28.1375 86.6538 27.6693C86.3493 27.2011 86.197 26.6238 86.197 25.9375C86.197 25.3466 86.3061 24.8579 86.5243 24.4716C86.7425 24.0852 87.0402 23.7761 87.4174 23.5443C87.7947 23.3125 88.2197 23.1375 88.6925 23.0193C89.1697 22.8966 89.6629 22.8079 90.172 22.7534C90.7856 22.6897 91.2834 22.6329 91.6652 22.5829C92.047 22.5284 92.3243 22.4466 92.497 22.3375C92.6743 22.2238 92.7629 22.0488 92.7629 21.8125V21.7716C92.7629 21.2579 92.6106 20.8602 92.3061 20.5784C92.0015 20.2966 91.5629 20.1557 90.9902 20.1557C90.3856 20.1557 89.9061 20.2875 89.5515 20.5511C89.2015 20.8147 88.9652 21.1261 88.8424 21.4852L86.5379 21.1579C86.7197 20.5216 87.0197 19.9897 87.4379 19.5625C87.8561 19.1307 88.3675 18.8079 88.972 18.5943C89.5765 18.3761 90.2447 18.267 90.9765 18.267C91.4811 18.267 91.9834 18.3261 92.4834 18.4443C92.9834 18.5625 93.4402 18.7579 93.8538 19.0307C94.2674 19.2988 94.5993 19.6647 94.8493 20.1284C95.1038 20.592 95.2311 21.1716 95.2311 21.867V28.8761H92.8584V27.4375H92.7765C92.6265 27.7284 92.4152 28.0011 92.1425 28.2557C91.8743 28.5057 91.5356 28.7079 91.1265 28.8625C90.722 29.0125 90.247 29.0875 89.7015 29.0875ZM90.3424 27.2738C90.8379 27.2738 91.2675 27.1761 91.6311 26.9807C91.9947 26.7807 92.2743 26.517 92.4697 26.1897C92.6697 25.8625 92.7697 25.5057 92.7697 25.1193V23.8852C92.6925 23.9488 92.5606 24.0079 92.3743 24.0625C92.1925 24.117 91.9879 24.1647 91.7606 24.2057C91.5334 24.2466 91.3084 24.2829 91.0856 24.3147C90.8629 24.3466 90.6697 24.3738 90.5061 24.3966C90.1379 24.4466 89.8084 24.5284 89.5175 24.642C89.2265 24.7557 88.997 24.9147 88.8288 25.1193C88.6606 25.3193 88.5765 25.5784 88.5765 25.8966C88.5765 26.3511 88.7425 26.6943 89.0743 26.9261C89.4061 27.1579 89.8288 27.2738 90.3424 27.2738Z" fill="white"/>
<defs>
<linearGradient id="paint0_linear_268_2711" x1="-0.117338" y1="8.03809" x2="23.6669" y2="38.0689" gradientUnits="userSpaceOnUse">
<stop stop-color="#1557D0"/>
<stop offset="0.340251" stop-color="#2B6BE1"/>
<stop offset="1" stop-color="#0445BD"/>
</linearGradient>
<linearGradient id="paint1_linear_268_2711" x1="0.768921" y1="8.03809" x2="15.2271" y2="36.5695" gradientUnits="userSpaceOnUse">
<stop stop-color="#FF6A7A"/>
<stop offset="0.68072" stop-color="#F10720"/>
<stop offset="1" stop-color="#F10720"/>
</linearGradient>
</defs>
</svg>
